<?xml version="1.0" standalone="no"?>
<!DOCTYPE svg PUBLIC "-//W3C//DTD SVG 20010904//EN"
 "http://www.w3.org/TR/2001/REC-SVG-20010904/DTD/svg10.dtd">
<svg version="1.0" xmlns="http://www.w3.org/2000/svg"
 width="280.000000pt" height="280.000000pt" viewBox="0 0 280.000000 280.000000"
 preserveAspectRatio="xMidYMid meet">
<metadata>
Created by potrace 1.14, written by Peter Selinger 2001-2017
</metadata>
<g transform="translate(0.000000,280.000000) scale(0.100000,-0.100000)"
fill="#000000" stroke="none">
<path d="M1185 2783 c-44 -7 -111 -22 -150 -33 -38 -11 -80 -23 -93 -25 -40
-9 -225 -100 -297 -147 -214 -137 -384 -327 -500 -558 -37 -73 -99 -247 -110
-310 -4 -19 -13 -66 -20 -105 -12 -70 -13 -364 -1 -415 3 -14 9 -38 12 -55 63
-355 292 -698 599 -898 137 -90 191 -116 329 -162 169 -56 250 -69 446 -69
147 -1 192 3 279 22 119 27 257 73 320 108 24 13 48 24 53 24 5 0 21 8 36 18
15 11 47 32 72 48 268 173 465 427 565 727 54 163 69 253 69 427 1 195 -6 257
-50 406 -147 509 -555 882 -1084 991 -102 21 -371 24 -475 6z"/>
</g>
</svg>
